<?xml version="1.0" standalone="no"?>
<!DOCTYPE svg PUBLIC "-//W3C//DTD SVG 20010904//EN"
 "http://www.w3.org/TR/2001/REC-SVG-20010904/DTD/svg10.dtd">
<svg version="1.0" xmlns="http://www.w3.org/2000/svg"
 width="5000.000000pt" height="5000.000000pt" viewBox="0 0 5000.000000 5000.000000"
 preserveAspectRatio="xMidYMid meet">

<g transform="translate(0.000000,5000.000000) scale(0.100000,-0.100000)"
fill="#000000" stroke="none">
<path d="M19595 46859 c-184 -15 -411 -48 -595 -85 -1358 -271 -2714 -1113
-3711 -2304 -769 -919 -1227 -2044 -1353 -3325 -75 -757 -25 -1625 130 -2265
282 -1168 994 -2447 2203 -3960 576 -721 940 -1131 2120 -2390 1510 -1610
2901 -3051 4211 -4360 885 -885 1265 -1254 1282 -1244 6 4 8 3 5 -3 -11 -17
506 -499 523 -488 6 4 9 1 8 -6 -5 -21 373 -341 515 -435 l67 -46 68 46 c133
89 519 414 515 433 -1 6 4 10 11 9 52 -5 1791 1696 2971 2909 1833 1882 3876
4048 4493 4763 1628 1886 2547 3412 2876 4772 174 720 213 1695 100 2525 -152
1120 -579 2140 -1237 2960 -841 1047 -1983 1855 -3167 2243 -591 194 -1107
272 -1714 259 -487 -10 -883 -63 -1364 -183 -1062 -264 -2004 -778 -2708
-1479 -331 -330 -570 -644 -780 -1027 -32 -60 -61 -108 -64 -108 -4 0 -25 36
-49 80 -778 1460 -2482 2496 -4431 2695 -185 19 -764 28 -925 14z"/>
<path d="M9175 36090 c-1475 -91 -2697 -564 -3715 -1438 -964 -828 -1703
-1908 -2068 -3022 -194 -591 -272 -1107 -259 -1714 10 -487 63 -883 183 -1364
264 -1062 778 -2004 1479 -2708 330 -331 644 -570 1028 -780 59 -32 107 -61
107 -64 0 -4 -36 -25 -80 -49 -1460 -778 -2499 -2487 -2695 -4431 -22 -221
-31 -678 -16 -880 81 -1106 525 -2208 1292 -3205 468 -609 1060 -1168 1640
-1548 1227 -805 2813 -1134 4469 -926 677 84 1305 288 2060 665 653 327 1289
732 2030 1292 405 307 1117 888 1113 909 -1 6 4 10 11 9 65 -6 2570 2335 4361
4074 2313 2248 3620 3600 3902 4038 l34 53 -45 67 c-89 133 -414 519 -433 515
-6 -1 -10 4 -9 11 5 52 -1700 1794 -2914 2977 -1866 1816 -4047 3874 -4758
4487 -1886 1628 -3412 2547 -4772 2876 -277 67 -562 111 -930 141 -219 19
-816 27 -1015 15z"/>
<path d="M40095 36093 c-288 -12 -684 -54 -935 -99 -1204 -217 -2589 -949
-4165 -2202 -700 -557 -1122 -927 -2145 -1881 -2082 -1943 -4531 -4324 -5714
-5556 -368 -383 -701 -746 -700 -761 1 -7 -3 -12 -9 -11 -19 4 -344 -382 -433
-515 l-46 -68 46 -67 c89 -134 414 -520 433 -516 6 1 10 -4 9 -11 -5 -53 1696
-1791 2914 -2977 2186 -2128 4849 -4625 4900 -4594 6 4 9 1 8 -6 -5 -22 687
-590 1112 -911 744 -562 1378 -965 2030 -1292 755 -377 1383 -581 2060 -665
978 -123 1992 -54 2852 194 1092 314 1986 870 2792 1735 710 761 1212 1591
1504 2480 194 591 272 1109 259 1715 -11 489 -63 883 -183 1363 -389 1564
-1325 2859 -2534 3503 -44 24 -80 46 -80 49 0 3 36 25 80 49 1460 778 2499
2487 2695 4431 22 221 31 678 16 880 -51 692 -235 1358 -560 2025 -436 894
-1062 1684 -1861 2351 -1071 893 -2500 1374 -4045 1362 -126 -1 -261 -3 -300
-5z"/>
<path d="M24933 24007 c-149 -101 -520 -415 -515 -436 1 -7 -2 -10 -8 -6 -11
7 -80 -54 -395 -349 -1200 -1124 -3745 -3729 -5926 -6066 -954 -1023 -1322
-1443 -1881 -2145 -1251 -1574 -1983 -2957 -2202 -4165 -106 -583 -133 -1348
-70 -1985 121 -1231 556 -2334 1267 -3220 841 -1047 1983 -1855 3167 -2243
591 -194 1109 -272 1715 -259 489 11 883 63 1363 183 1564 389 2859 1325 3503
2534 24 44 46 80 49 80 3 0 25 -36 49 -80 778 -1460 2487 -2499 4431 -2695
221 -22 678 -31 880 -16 692 51 1358 235 2025 560 894 436 1684 1062 2351
1861 917 1100 1396 2568 1360 4165 -25 1114 -220 1883 -741 2915 -469 928
-1163 1919 -2184 3120 -877 1031 -4189 4508 -6082 6385 -731 724 -1466 1422
-1495 1419 -7 -1 -12 3 -11 9 5 26 -550 479 -584 477 -2 0 -32 -20 -66 -43z"/>
</g>
</svg>
